  0
SECTION
  2
HEADER
  9
$ACADVER
  1
AC1014
  9
$HANDSEED
  5
FFFF
  9
$MEASUREMENT
 70
     1
  0
ENDSEC
  0
SECTION
  2
TABLES
  0
TABLE
  2
VPORT
  5
8
330
0
100
AcDbSymbolTable
 70
     4
  0
VPORT
  5
2E
330
8
100
AcDbSymbolTableRecord
100
AcDbViewportTableRecord
  2
*ACTIVE
 70
     0
 10
0.0
 20
0.0
 11
1.0
 21
1.0
 12
210.0
 22
148.5
 13
0.0
 23
0.0
 14
10.0
 24
10.0
 15
10.0
 25
10.0
 16
0.0
 26
0.0
 36
1.0
 17
0.0
 27
0.0
 37
0.0
 40
341.0
 41
1.24
 42
50.0
 43
0.0
 44
0.0
 50
0.0
 51
0.0
 71
     0
 72
   100
 73
     1
 74
     3
 75
     0
 76
     0
 77
     0
 78
     0
  0
ENDTAB
  0
TABLE
  2
LTYPE
  5
5
330
0
100
AcDbSymbolTable
 70
     1
  0
LTYPE
  5
14
330
5
100
AcDbSymbolTableRecord
100
AcDbLinetypeTableRecord
  2
BYBLOCK
 70
     0
  3

 72
    65
 73
     0
 40
0.0
  0
LTYPE
  5
15
330
5
100
AcDbSymbolTableRecord
100
AcDbLinetypeTableRecord
  2
BYLAYER
 70
     0
  3

 72
    65
 73
     0
 40
0.0
  0
LTYPE
  5
16
330
5
100
AcDbSymbolTableRecord
100
AcDbLinetypeTableRecord
  2
CONTINUOUS
 70
     0
  3
Solid line
 72
    65
 73
     0
 40
0.0
  0
ENDTAB
  0
TABLE
  2
LAYER
  5
2
100
AcDbSymbolTable
 70
4
  0
LAYER
  5
50
100
AcDbSymbolTableRecord
100
AcDbLayerTableRecord
  2
0
 70
0
  6
CONTINUOUS
  0
LAYER
  5
51
100
AcDbSymbolTableRecord
100
AcDbLayerTableRecord
  2
w3c
 70
0
  6
CONTINUOUS
  0
LAYER
  5
52
100
AcDbSymbolTableRecord
100
AcDbLayerTableRecord
  2
borda
 70
0
  6
CONTINUOUS
  0
LAYER
  5
53
100
AcDbSymbolTableRecord
100
AcDbLayerTableRecord
  2
argola
 70
0
  6
CONTINUOUS
  0
ENDTAB
  0
TABLE
  2
STYLE
  5
3
330
0
100
AcDbSymbolTable
 70
     1
  0
STYLE
  5
11
330
3
100
AcDbSymbolTableRecord
100
AcDbTextStyleTableRecord
  2
STANDARD
 70
     0
 40
0.0
 41
1.0
 50
0.0
 71
     0
 42
2.5
  3
txt
  4

  0
ENDTAB
  0
TABLE
  2
VIEW
  5
6
330
0
100
AcDbSymbolTable
 70
     0
  0
ENDTAB
  0
TABLE
  2
UCS
  5
7
330
0
100
AcDbSymbolTable
 70
     0
  0
ENDTAB
  0
TABLE
  2
APPID
  5
9
330
0
100
AcDbSymbolTable
 70
     2
  0
APPID
  5
12
330
9
100
AcDbSymbolTableRecord
100
AcDbRegAppTableRecord
  2
ACAD
 70
     0
  0
ENDTAB
  0
TABLE
  2
DIMSTYLE
  5
A
330
0
100
AcDbSymbolTable
 70
     1
  0
DIMSTYLE
105
27
330
A
100
AcDbSymbolTableRecord
100
AcDbDimStyleTableRecord
  2
ISO-25
 70
     0
  3

  4

  5

  6

  7

 40
1.0
 41
2.5
 42
0.625
 43
3.75
 44
1.25
 45
0.0
 46
0.0
 47
0.0
 48
0.0
140
2.5
141
2.5
142
0.0
143
0.03937007874016
144
1.0
145
0.0
146
1.0
147
0.625
 71
     0
 72
     0
 73
     0
 74
     0
 75
     0
 76
     0
 77
     1
 78
     8
170
     0
171
     3
172
     1
173
     0
174
     0
175
     0
176
     0
177
     0
178
     0
270
     2
271
     2
272
     2
273
     2
274
     3
340
11
275
     0
280
     0
281
     0
282
     0
283
     0
284
     8
285
     0
286
     0
287
     3
288
     0
  0
ENDTAB
  0
TABLE
  2
BLOCK_RECORD
  5
1
330
0
100
AcDbSymbolTable
 70
     1
  0
BLOCK_RECORD
  5
1F
330
1
100
AcDbSymbolTableRecord
100
AcDbBlockTableRecord
  2
*MODEL_SPACE
  0
BLOCK_RECORD
  5
1B
330
1
100
AcDbSymbolTableRecord
100
AcDbBlockTableRecord
  2
*PAPER_SPACE
  0
ENDTAB
  0
ENDSEC
  0
SECTION
  2
BLOCKS
  0
BLOCK
  5
20
330
1F
100
AcDbEntity
  8
0
100
AcDbBlockBegin
  2
*MODEL_SPACE
 70
     0
 10
0.0
 20
0.0
 30
0.0
  3
*MODEL_SPACE
  1

  0
ENDBLK
  5
21
330
1F
100
AcDbEntity
  8
0
100
AcDbBlockEnd
  0
BLOCK
  5
1C
330
1B
100
AcDbEntity
 67
     1
  8
0
100
AcDbBlockBegin
  2
*PAPER_SPACE
  1

  0
ENDBLK
  5
1D
330
1B
100
AcDbEntity
 67
     1
  8
0
100
AcDbBlockEnd
  0
ENDSEC
  0
SECTION
  2
ENTITIES
  0
LWPOLYLINE
  5
100
100
AcDbEntity
  8
w3c
 62
7
100
AcDbPolyline
 90
65
 70
1
 10
3.285974
 20
31.455325
 30
0.0
 10
2.854477
 20
31.411724
 30
0.0
 10
2.452435
 20
31.286699
 30
0.0
 10
2.088503
 20
31.088920
 30
0.0
 10
1.771334
 20
30.827054
 30
0.0
 10
1.509583
 20
30.509771
 30
0.0
 10
1.311903
 20
30.145739
 30
0.0
 10
1.186949
 20
29.743627
 30
0.0
 10
1.143374
 20
29.312103
 30
0.0
 10
1.143374
 20
28.738223
 30
0.0
 10
1.143374
 20
28.164343
 30
0.0
 10
1.143374
 20
27.590463
 30
0.0
 10
1.143374
 20
27.016583
 30
0.0
 10
1.143374
 20
26.442703
 30
0.0
 10
1.143374
 20
25.868823
 30
0.0
 10
1.143374
 20
25.294943
 30
0.0
 10
1.143374
 20
24.721063
 30
0.0
 10
1.186949
 20
24.289546
 30
0.0
 10
1.311903
 20
23.887452
 30
0.0
 10
1.509583
 20
23.523445
 30
0.0
 10
1.771334
 20
23.206191
 30
0.0
 10
2.088503
 20
22.944354
 30
0.0
 10
2.452435
 20
22.746599
 30
0.0
 10
2.854477
 20
22.621591
 30
0.0
 10
3.285974
 20
22.577997
 30
0.0
 10
4.715268
 20
22.577997
 30
0.0
 10
6.144562
 20
22.577997
 30
0.0
 10
7.573857
 20
22.577997
 30
0.0
 10
9.003151
 20
22.577997
 30
0.0
 10
10.432445
 20
22.577997
 30
0.0
 10
11.861739
 20
22.577997
 30
0.0
 10
13.291034
 20
22.577997
 30
0.0
 10
14.720328
 20
22.577997
 30
0.0
 10
15.151824
 20
22.621591
 30
0.0
 10
15.553866
 20
22.746599
 30
0.0
 10
15.917799
 20
22.944354
 30
0.0
 10
16.234967
 20
23.206191
 30
0.0
 10
16.496718
 20
23.523445
 30
0.0
 10
16.694399
 20
23.887452
 30
0.0
 10
16.819353
 20
24.289546
 30
0.0
 10
16.862927
 20
24.721063
 30
0.0
 10
16.862927
 20
25.294943
 30
0.0
 10
16.862927
 20
25.868823
 30
0.0
 10
16.862927
 20
26.442703
 30
0.0
 10
16.862927
 20
27.016583
 30
0.0
 10
16.862927
 20
27.590463
 30
0.0
 10
16.862927
 20
28.164343
 30
0.0
 10
16.862927
 20
28.738223
 30
0.0
 10
16.862927
 20
29.312103
 30
0.0
 10
16.819353
 20
29.743627
 30
0.0
 10
16.694399
 20
30.145739
 30
0.0
 10
16.496718
 20
30.509771
 30
0.0
 10
16.234967
 20
30.827054
 30
0.0
 10
15.917799
 20
31.088920
 30
0.0
 10
15.553866
 20
31.286699
 30
0.0
 10
15.151824
 20
31.411724
 30
0.0
 10
14.720328
 20
31.455325
 30
0.0
 10
13.291034
 20
31.455325
 30
0.0
 10
11.861739
 20
31.455325
 30
0.0
 10
10.432445
 20
31.455325
 30
0.0
 10
9.003151
 20
31.455325
 30
0.0
 10
7.573857
 20
31.455325
 30
0.0
 10
6.144562
 20
31.455325
 30
0.0
 10
4.715268
 20
31.455325
 30
0.0
 10
3.285974
 20
31.455325
 30
0.0
  0
LWPOLYLINE
  5
101
100
AcDbEntity
  8
w3c
 62
7
100
AcDbPolyline
 90
105
 70
1
 10
15.192157
 20
30.412883
 30
0.0
 10
15.209911
 20
30.305115
 30
0.0
 10
15.227665
 20
30.197347
 30
0.0
 10
15.245419
 20
30.089579
 30
0.0
 10
15.263172
 20
29.981811
 30
0.0
 10
15.280926
 20
29.874044
 30
0.0
 10
15.298680
 20
29.766276
 30
0.0
 10
15.316434
 20
29.658508
 30
0.0
 10
15.334188
 20
29.550740
 30
0.0
 10
15.271340
 20
29.430663
 30
0.0
 10
15.208492
 20
29.310587
 30
0.0
 10
15.145643
 20
29.190510
 30
0.0
 10
15.082794
 20
29.070433
 30
0.0
 10
15.019946
 20
28.950356
 30
0.0
 10
14.957098
 20
28.830279
 30
0.0
 10
14.894249
 20
28.710202
 30
0.0
 10
14.831401
 20
28.590125
 30
0.0
 10
14.822474
 20
28.608080
 30
0.0
 10
14.796206
 20
28.657337
 30
0.0
 10
14.753372
 20
28.730988
 30
0.0
 10
14.694742
 20
28.822120
 30
0.0
 10
14.621090
 20
28.923826
 30
0.0
 10
14.533188
 20
29.029193
 30
0.0
 10
14.431809
 20
29.131313
 30
0.0
 10
14.317725
 20
29.223276
 30
0.0
 10
14.220482
 20
29.287679
 30
0.0
 10
14.129788
 20
29.338720
 30
0.0
 10
14.043380
 20
29.376997
 30
0.0
 10
13.958993
 20
29.403112
 30
0.0
 10
13.874363
 20
29.417667
 30
0.0
 10
13.787226
 20
29.421261
 30
0.0
 10
13.695315
 20
29.414497
 30
0.0
 10
13.596369
 20
29.397976
 30
0.0
 10
13.462184
 20
29.354791
 30
0.0
 10
13.326758
 20
29.281791
 30
0.0
 10
13.193292
 20
29.181920
 30
0.0
 10
13.064985
 20
29.058124
 30
0.0
 10
12.945036
 20
28.913349
 30
0.0
 10
12.836645
 20
28.750540
 30
0.0
 10
12.743011
 20
28.572642
 30
0.0
 10
12.667334
 20
28.382601
 30
0.0
 10
12.598181
 20
28.163621
 30
0.0
 10
12.545948
 20
27.971289
 30
0.0
 10
12.508150
 20
27.802125
 30
0.0
 10
12.482304
 20
27.652646
 30
0.0
 10
12.465926
 20
27.519371
 30
0.0
 10
12.456533
 20
27.398818
 30
0.0
 10
12.451642
 20
27.287505
 30
0.0
 10
12.448767
 20
27.181949
 30
0.0
 10
12.447891
 20
27.024240
 30
0.0
 10
12.452917
 20
26.884494
 30
0.0
 10
12.462053
 20
26.763657
 30
0.0
 10
12.473522
 20
26.662673
 30
0.0
 10
12.485543
 20
26.582486
 30
0.0
 10
12.496334
 20
26.524040
 30
0.0
 10
12.504115
 20
26.488280
 30
0.0
 10
12.507102
 20
26.476150
 30
0.0
 10
12.493994
 20
26.501991
 30
0.0
 10
12.459459
 20
26.577156
 30
0.0
 10
12.410687
 20
26.698110
 30
0.0
 10
12.354866
 20
26.861318
 30
0.0
 10
12.299182
 20
27.063244
 30
0.0
 10
12.250825
 20
27.300351
 30
0.0
 10
12.216981
 20
27.569105
 30
0.0
 10
12.204839
 20
27.865969
 30
0.0
 10
12.210008
 20
28.084548
 30
0.0
 10
12.224728
 20
28.298548
 30
0.0
 10
12.250053
 20
28.508529
 30
0.0
 10
12.287036
 20
28.715052
 30
0.0
 10
12.336730
 20
28.918676
 30
0.0
 10
12.400186
 20
29.119962
 30
0.0
 10
12.478458
 20
29.319470
 30
0.0
 10
12.572598
 20
29.517761
 30
0.0
 10
12.667907
 20
29.682920
 30
0.0
 10
12.772324
 20
29.829981
 30
0.0
 10
12.884011
 20
29.958243
 30
0.0
 10
13.001129
 20
30.067001
 30
0.0
 10
13.121841
 20
30.155553
 30
0.0
 10
13.244310
 20
30.223196
 30
0.0
 10
13.366697
 20
30.269227
 30
0.0
 10
13.487166
 20
30.292942
 30
0.0
 10
13.606844
 20
30.296987
 30
0.0
 10
13.720210
 20
30.285164
 30
0.0
 10
13.827376
 20
30.259569
 30
0.0
 10
13.928456
 20
30.222295
 30
0.0
 10
14.023562
 20
30.175438
 30
0.0
 10
14.112808
 20
30.121090
 30
0.0
 10
14.196306
 20
30.061347
 30
0.0
 10
14.274170
 20
29.998302
 30
0.0
 10
14.352617
 20
29.922324
 30
0.0
 10
14.428780
 20
29.833472
 30
0.0
 10
14.500139
 20
29.738836
 30
0.0
 10
14.564176
 20
29.645507
 30
0.0
 10
14.618368
 20
29.560575
 30
0.0
 10
14.660197
 20
29.491130
 30
0.0
 10
14.687143
 20
29.444264
 30
0.0
 10
14.696685
 20
29.427067
 30
0.0
 10
14.758619
 20
29.550294
 30
0.0
 10
14.820554
 20
29.673521
 30
0.0
 10
14.882488
 20
29.796748
 30
0.0
 10
14.944423
 20
29.919975
 30
0.0
 10
15.006357
 20
30.043202
 30
0.0
 10
15.068291
 20
30.166429
 30
0.0
 10
15.130226
 20
30.289656
 30
0.0
 10
15.192157
 20
30.412883
 30
0.0
  0
LWPOLYLINE
  5
102
100
AcDbEntity
  8
w3c
 62
7
100
AcDbPolyline
 90
281
 70
1
 10
2.625133
 20
30.375080
 30
0.0
 10
2.734709
 20
30.375080
 30
0.0
 10
2.844285
 20
30.375080
 30
0.0
 10
2.953862
 20
30.375080
 30
0.0
 10
3.063438
 20
30.375080
 30
0.0
 10
3.173014
 20
30.375080
 30
0.0
 10
3.282590
 20
30.375080
 30
0.0
 10
3.392167
 20
30.375080
 30
0.0
 10
3.501743
 20
30.375080
 30
0.0
 10
3.653088
 20
29.861151
 30
0.0
 10
3.804434
 20
29.347222
 30
0.0
 10
3.955779
 20
28.833293
 30
0.0
 10
4.107125
 20
28.319364
 30
0.0
 10
4.258470
 20
27.805435
 30
0.0
 10
4.409816
 20
27.291506
 30
0.0
 10
4.561161
 20
26.777577
 30
0.0
 10
4.712507
 20
26.263648
 30
0.0
 10
4.814791
 20
26.609741
 30
0.0
 10
4.917075
 20
26.955835
 30
0.0
 10
5.019359
 20
27.301929
 30
0.0
 10
5.121643
 20
27.648022
 30
0.0
 10
5.223927
 20
27.994116
 30
0.0
 10
5.326212
 20
28.340210
 30
0.0
 10
5.428496
 20
28.686303
 30
0.0
 10
5.530780
 20
29.032397
 30
0.0
 10
5.480688
 20
29.200232
 30
0.0
 10
5.430596
 20
29.368068
 30
0.0
 10
5.380504
 20
29.535903
 30
0.0
 10
5.330412
 20
29.703739
 30
0.0
 10
5.280320
 20
29.871574
 30
0.0
 10
5.230228
 20
30.039409
 30
0.0
 10
5.180136
 20
30.207245
 30
0.0
 10
5.130044
 20
30.375080
 30
0.0
 10
5.239640
 20
30.375080
 30
0.0
 10
5.349235
 20
30.375080
 30
0.0
 10
5.458831
 20
30.375080
 30
0.0
 10
5.568427
 20
30.375080
 30
0.0
 10
5.678022
 20
30.375080
 30
0.0
 10
5.787618
 20
30.375080
 30
0.0
 10
5.897214
 20
30.375080
 30
0.0
 10
6.006809
 20
30.375080
 30
0.0
 10
6.158135
 20
29.861151
 30
0.0
 10
6.309461
 20
29.347222
 30
0.0
 10
6.460788
 20
28.833293
 30
0.0
 10
6.612114
 20
28.319364
 30
0.0
 10
6.763440
 20
27.805435
 30
0.0
 10
6.914766
 20
27.291506
 30
0.0
 10
7.066092
 20
26.777577
 30
0.0
 10
7.217418
 20
26.263648
 30
0.0
 10
7.368763
 20
26.777577
 30
0.0
 10
7.520109
 20
27.291506
 30
0.0
 10
7.671454
 20
27.805435
 30
0.0
 10
7.822800
 20
28.319364
 30
0.0
 10
7.974145
 20
28.833293
 30
0.0
 10
8.125491
 20
29.347222
 30
0.0
 10
8.276836
 20
29.861151
 30
0.0
 10
8.428182
 20
30.375080
 30
0.0
 10
8.537758
 20
30.375080
 30
0.0
 10
8.647334
 20
30.375080
 30
0.0
 10
8.756910
 20
30.375080
 30
0.0
 10
8.866487
 20
30.375080
 30
0.0
 10
8.976063
 20
30.375080
 30
0.0
 10
9.085639
 20
30.375080
 30
0.0
 10
9.195215
 20
30.375080
 30
0.0
 10
9.304792
 20
30.375080
 30
0.0
 10
9.605538
 20
30.375080
 30
0.0
 10
9.906285
 20
30.375080
 30
0.0
 10
10.207031
 20
30.375080
 30
0.0
 10
10.507778
 20
30.375080
 30
0.0
 10
10.808523
 20
30.375080
 30
0.0
 10
11.109270
 20
30.375080
 30
0.0
 10
11.410016
 20
30.375080
 30
0.0
 10
11.710763
 20
30.375080
 30
0.0
 10
11.710763
 20
30.323977
 30
0.0
 10
11.710763
 20
30.272874
 30
0.0
 10
11.710763
 20
30.221771
 30
0.0
 10
11.710763
 20
30.170668
 30
0.0
 10
11.710763
 20
30.119564
 30
0.0
 10
11.710763
 20
30.068461
 30
0.0
 10
11.710763
 20
30.017358
 30
0.0
 10
11.710763
 20
29.966255
 30
0.0
 10
11.556287
 20
29.700452
 30
0.0
 10
11.401811
 20
29.434650
 30
0.0
 10
11.247334
 20
29.168847
 30
0.0
 10
11.092858
 20
28.903045
 30
0.0
 10
10.938382
 20
28.637242
 30
0.0
 10
10.783906
 20
28.371439
 30
0.0
 10
10.629429
 20
28.105637
 30
0.0
 10
10.474953
 20
27.839834
 30
0.0
 10
10.632871
 20
27.782370
 30
0.0
 10
10.780851
 20
27.714215
 30
0.0
 10
10.918895
 20
27.635371
 30
0.0
 10
11.047006
 20
27.545838
 30
0.0
 10
11.165185
 20
27.445616
 30
0.0
 10
11.273433
 20
27.334708
 30
0.0
 10
11.371754
 20
27.213113
 30
0.0
 10
11.460148
 20
27.080832
 30
0.0
 10
11.538450
 20
26.940260
 30
0.0
 10
11.606319
 20
26.793706
 30
0.0
 10
11.663751
 20
26.641162
 30
0.0
 10
11.710745
 20
26.482623
 30
0.0
 10
11.747298
 20
26.318083
 30
0.0
 10
11.773410
 20
26.147535
 30
0.0
 10
11.789078
 20
25.970974
 30
0.0
 10
11.794303
 20
25.788396
 30
0.0
 10
11.786673
 20
25.563601
 30
0.0
 10
11.763777
 20
25.347931
 30
0.0
 10
11.725616
 20
25.141382
 30
0.0
 10
11.672189
 20
24.943951
 30
0.0
 10
11.603498
 20
24.755635
 30
0.0
 10
11.519542
 20
24.576431
 30
0.0
 10
11.420319
 20
24.406335
 30
0.0
 10
11.305830
 20
24.245344
 30
0.0
 10
11.179212
 20
24.098875
 30
0.0
 10
11.043597
 20
23.971909
 30
0.0
 10
10.898984
 20
23.864454
 30
0.0
 10
10.745372
 20
23.776518
 30
0.0
 10
10.582761
 20
23.708109
 30
0.0
 10
10.411152
 20
23.659235
 30
0.0
 10
10.230541
 20
23.629906
 30
0.0
 10
10.040929
 20
23.620128
 30
0.0
 10
9.897093
 20
23.625934
 30
0.0
 10
9.757970
 20
23.643351
 30
0.0
 10
9.623557
 20
23.672374
 30
0.0
 10
9.493856
 20
23.713000
 30
0.0
 10
9.368863
 20
23.765226
 30
0.0
 10
9.248579
 20
23.829047
 30
0.0
 10
9.133003
 20
23.904460
 30
0.0
 10
9.022133
 20
23.991462
 30
0.0
 10
8.917132
 20
24.088277
 30
0.0
 10
8.819165
 20
24.193313
 30
0.0
 10
8.728236
 20
24.306571
 30
0.0
 10
8.644344
 20
24.428053
 30
0.0
 10
8.567491
 20
24.557760
 30
0.0
 10
8.497679
 20
24.695696
 30
0.0
 10
8.434909
 20
24.841862
 30
0.0
 10
8.379182
 20
24.996258
 30
0.0
 10
8.464762
 20
25.031668
 30
0.0
 10
8.550343
 20
25.067079
 30
0.0
 10
8.635923
 20
25.102490
 30
0.0
 10
8.721503
 20
25.137900
 30
0.0
 10
8.807083
 20
25.173311
 30
0.0
 10
8.892664
 20
25.208721
 30
0.0
 10
8.978244
 20
25.244132
 30
0.0
 10
9.063824
 20
25.279542
 30
0.0
 10
9.102949
 20
25.186164
 30
0.0
 10
9.145062
 20
25.097890
 30
0.0
 10
9.190167
 20
25.014714
 30
0.0
 10
9.238266
 20
24.936633
 30
0.0
 10
9.289363
 20
24.863643
 30
0.0
 10
9.343461
 20
24.795738
 30
0.0
 10
9.400563
 20
24.732916
 30
0.0
 10
9.460671
 20
24.675171
 30
0.0
 10
9.523608
 20
24.623370
 30
0.0
 10
9.589281
 20
24.578472
 30
0.0
 10
9.657695
 20
24.540478
 30
0.0
 10
9.728849
 20
24.509390
 30
0.0
 10
9.802748
 20
24.485208
 30
0.0
 10
9.879393
 20
24.467934
 30
0.0
 10
9.958786
 20
24.457568
 30
0.0
 10
10.040929
 20
24.454112
 30
0.0
 10
10.126870
 20
24.460237
 30
0.0
 10
10.209437
 20
24.478607
 30
0.0
 10
10.288626
 20
24.509223
 30
0.0
 10
10.364434
 20
24.552085
 30
0.0
 10
10.436858
 20
24.607192
 30
0.0
 10
10.505894
 20
24.674545
 30
0.0
 10
10.571539
 20
24.754141
 30
0.0
 10
10.633789
 20
24.845982
 30
0.0
 10
10.690551
 20
24.946461
 30
0.0
 10
10.739733
 20
25.051890
 30
0.0
 10
10.781339
 20
25.162270
 30
0.0
 10
10.815372
 20
25.277606
 30
0.0
 10
10.841835
 20
25.397899
 30
0.0
 10
10.860734
 20
25.523152
 30
0.0
 10
10.872070
 20
25.653369
 30
0.0
 10
10.875845
 20
25.788551
 30
0.0
 10
10.871807
 20
25.936438
 30
0.0
 10
10.859689
 20
26.075708
 30
0.0
 10
10.839486
 20
26.206365
 30
0.0
 10
10.811200
 20
26.328414
 30
0.0
 10
10.774824
 20
26.441862
 30
0.0
 10
10.730358
 20
26.546714
 30
0.0
 10
10.677798
 20
26.642976
 30
0.0
 10
10.617142
 20
26.730654
 30
0.0
 10
10.536619
 20
26.822502
 30
0.0
 10
10.445398
 20
26.902116
 30
0.0
 10
10.343478
 20
26.969493
 30
0.0
 10
10.230864
 20
27.024629
 30
0.0
 10
10.107555
 20
27.067520
 30
0.0
 10
9.973553
 20
27.098161
 30
0.0
 10
9.828862
 20
27.116548
 30
0.0
 10
9.673483
 20
27.122678
 30
0.0
 10
9.631752
 20
27.122678
 30
0.0
 10
9.590022
 20
27.122678
 30
0.0
 10
9.548292
 20
27.122678
 30
0.0
 10
9.506561
 20
27.122678
 30
0.0
 10
9.464831
 20
27.122678
 30
0.0
 10
9.423101
 20
27.122678
 30
0.0
 10
9.381370
 20
27.122678
 30
0.0
 10
9.339640
 20
27.122678
 30
0.0
 10
9.339640
 20
27.172712
 30
0.0
 10
9.339640
 20
27.222746
 30
0.0
 10
9.339640
 20
27.272779
 30
0.0
 10
9.339640
 20
27.322813
 30
0.0
 10
9.339640
 20
27.372847
 30
0.0
 10
9.339640
 20
27.422880
 30
0.0
 10
9.339640
 20
27.472914
 30
0.0
 10
9.339640
 20
27.522948
 30
0.0
 10
9.485754
 20
27.775216
 30
0.0
 10
9.631869
 20
28.027484
 30
0.0
 10
9.777984
 20
28.279753
 30
0.0
 10
9.924098
 20
28.532021
 30
0.0
 10
10.070213
 20
28.784290
 30
0.0
 10
10.216328
 20
29.036558
 30
0.0
 10
10.362442
 20
29.288827
 30
0.0
 10
10.508557
 20
29.541095
 30
0.0
 10
10.332146
 20
29.541095
 30
0.0
 10
10.155734
 20
29.541095
 30
0.0
 10
9.979324
 20
29.541095
 30
0.0
 10
9.802913
 20
29.541095
 30
0.0
 10
9.626502
 20
29.541095
 30
0.0
 10
9.450091
 20
29.541095
 30
0.0
 10
9.273680
 20
29.541095
 30
0.0
 10
9.097269
 20
29.541095
 30
0.0
 10
9.087216
 20
29.524002
 30
0.0
 10
9.077163
 20
29.506910
 30
0.0
 10
9.067109
 20
29.489817
 30
0.0
 10
9.057056
 20
29.472724
 30
0.0
 10
9.047002
 20
29.455631
 30
0.0
 10
9.036949
 20
29.438539
 30
0.0
 10
9.026896
 20
29.421446
 30
0.0
 10
9.016842
 20
29.404353
 30
0.0
 10
8.802357
 20
28.681325
 30
0.0
 10
8.587871
 20
27.958297
 30
0.0
 10
8.373386
 20
27.235268
 30
0.0
 10
8.158900
 20
26.512241
 30
0.0
 10
7.944414
 20
25.789212
 30
0.0
 10
7.729929
 20
25.066184
 30
0.0
 10
7.515443
 20
24.343156
 30
0.0
 10
7.300958
 20
23.620128
 30
0.0
 10
7.290516
 20
23.620128
 30
0.0
 10
7.280073
 20
23.620128
 30
0.0
 10
7.269631
 20
23.620128
 30
0.0
 10
7.259189
 20
23.620128
 30
0.0
 10
7.248746
 20
23.620128
 30
0.0
 10
7.238304
 20
23.620128
 30
0.0
 10
7.227862
 20
23.620128
 30
0.0
 10
7.217419
 20
23.620128
 30
0.0
 10
7.060862
 20
24.143410
 30
0.0
 10
6.904306
 20
24.666693
 30
0.0
 10
6.747749
 20
25.189975
 30
0.0
 10
6.591192
 20
25.713258
 30
0.0
 10
6.434635
 20
26.236540
 30
0.0
 10
6.278078
 20
26.759823
 30
0.0
 10
6.121521
 20
27.283105
 30
0.0
 10
5.964964
 20
27.806387
 30
0.0
 10
5.808407
 20
27.283105
 30
0.0
 10
5.651850
 20
26.759823
 30
0.0
 10
5.495293
 20
26.236540
 30
0.0
 10
5.338736
 20
25.713258
 30
0.0
 10
5.182179
 20
25.189975
 30
0.0
 10
5.025622
 20
24.666693
 30
0.0
 10
4.869065
 20
24.143410
 30
0.0
 10
4.712508
 20
23.620128
 30
0.0
 10
4.702086
 20
23.620128
 30
0.0
 10
4.691663
 20
23.620128
 30
0.0
 10
4.681240
 20
23.620128
 30
0.0
 10
4.670817
 20
23.620128
 30
0.0
 10
4.660394
 20
23.620128
 30
0.0
 10
4.649971
 20
23.620128
 30
0.0
 10
4.639548
 20
23.620128
 30
0.0
 10
4.629126
 20
23.620128
 30
0.0
 10
4.378627
 20
24.464496
 30
0.0
 10
4.128126
 20
25.308866
 30
0.0
 10
3.877627
 20
26.153235
 30
0.0
 10
3.627128
 20
26.997604
 30
0.0
 10
3.376630
 20
27.841973
 30
0.0
 10
3.126131
 20
28.686342
 30
0.0
 10
2.875632
 20
29.530711
 30
0.0
 10
2.625133
 20
30.375080
 30
0.0
  0
LWPOLYLINE
  5
103
100
AcDbEntity
  8
w3c
 62
7
100
AcDbPolyline
 90
113
 70
1
 10
11.894952
 20
25.661143
 30
0.0
 10
11.904776
 20
25.643561
 30
0.0
 10
11.931888
 20
25.595499
 30
0.0
 10
11.972746
 20
25.523990
 30
0.0
 10
12.023809
 20
25.436065
 30
0.0
 10
12.081536
 20
25.338754
 30
0.0
 10
12.142385
 20
25.239088
 30
0.0
 10
12.202815
 20
25.144099
 30
0.0
 10
12.259286
 20
25.060818
 30
0.0
 10
12.317204
 20
24.985438
 30
0.0
 10
12.382288
 20
24.910514
 30
0.0
 10
12.451466
 20
24.837882
 30
0.0
 10
12.521665
 20
24.769381
 30
0.0
 10
12.589809
 20
24.706848
 30
0.0
 10
12.652826
 20
24.652120
 30
0.0
 10
12.707642
 20
24.607035
 30
0.0
 10
12.751183
 20
24.573431
 30
0.0
 10
12.796304
 20
24.541767
 30
0.0
 10
12.856646
 20
24.503473
 30
0.0
 10
12.930318
 20
24.461445
 30
0.0
 10
13.015428
 20
24.418580
 30
0.0
 10
13.110084
 20
24.377775
 30
0.0
 10
13.212393
 20
24.341925
 30
0.0
 10
13.320463
 20
24.313928
 30
0.0
 10
13.432403
 20
24.296681
 30
0.0
 10
13.539685
 20
24.288399
 30
0.0
 10
13.637024
 20
24.285882
 30
0.0
 10
13.727790
 20
24.289769
 30
0.0
 10
13.815358
 20
24.300697
 30
0.0
 10
13.903096
 20
24.319300
 30
0.0
 10
13.994377
 20
24.346212
 30
0.0
 10
14.092572
 20
24.382069
 30
0.0
 10
14.201051
 20
24.427506
 30
0.0
 10
14.313002
 20
24.483851
 30
0.0
 10
14.418879
 20
24.549871
 30
0.0
 10
14.518088
 20
24.622623
 30
0.0
 10
14.610034
 20
24.699167
 30
0.0
 10
14.694125
 20
24.776560
 30
0.0
 10
14.769764
 20
24.851863
 30
0.0
 10
14.836359
 20
24.922133
 30
0.0
 10
14.893317
 20
24.984429
 30
0.0
 10
14.948550
 20
25.051890
 30
0.0
 10
15.008067
 20
25.134701
 30
0.0
 10
15.068277
 20
25.225361
 30
0.0
 10
15.125589
 20
25.316363
 30
0.0
 10
15.176415
 20
25.400205
 30
0.0
 10
15.217165
 20
25.469383
 30
0.0
 10
15.244247
 20
25.516393
 30
0.0
 10
15.254072
 20
25.533730
 30
0.0
 10
15.269978
 20
25.450522
 30
0.0
 10
15.285885
 20
25.367314
 30
0.0
 10
15.301791
 20
25.284106
 30
0.0
 10
15.317698
 20
25.200898
 30
0.0
 10
15.333605
 20
25.117691
 30
0.0
 10
15.349511
 20
25.034482
 30
0.0
 10
15.365418
 20
24.951274
 30
0.0
 10
15.381324
 20
24.868066
 30
0.0
 10
15.377836
 20
24.861328
 30
0.0
 10
15.368236
 20
24.842907
 30
0.0
 10
15.353801
 20
24.815516
 30
0.0
 10
15.335811
 20
24.781862
 30
0.0
 10
15.315547
 20
24.744652
 30
0.0
 10
15.294289
 20
24.706595
 30
0.0
 10
15.273317
 20
24.670397
 30
0.0
 10
15.253912
 20
24.638767
 30
0.0
 10
15.226541
 20
24.596864
 30
0.0
 10
15.194704
 20
24.549722
 30
0.0
 10
15.158950
 20
24.498592
 30
0.0
 10
15.119826
 20
24.444722
 30
0.0
 10
15.077881
 20
24.389361
 30
0.0
 10
15.033664
 20
24.333759
 30
0.0
 10
14.987722
 20
24.279166
 30
0.0
 10
14.940604
 20
24.226830
 30
0.0
 10
14.892055
 20
24.176978
 30
0.0
 10
14.838913
 20
24.125807
 30
0.0
 10
14.783185
 20
24.074875
 30
0.0
 10
14.726884
 20
24.025743
 30
0.0
 10
14.672019
 20
23.979966
 30
0.0
 10
14.620599
 20
23.939105
 30
0.0
 10
14.574634
 20
23.904718
 30
0.0
 10
14.536134
 20
23.878364
 30
0.0
 10
14.489227
 20
23.849025
 30
0.0
 10
14.417641
 20
23.808683
 30
0.0
 10
14.322657
 20
23.763395
 30
0.0
 10
14.205555
 20
23.719216
 30
0.0
 10
14.067618
 20
23.682204
 30
0.0
 10
13.910128
 20
23.658414
 30
0.0
 10
13.734363
 20
23.653906
 30
0.0
 10
13.541606
 20
23.674731
 30
0.0
 10
13.349345
 20
23.724346
 30
0.0
 10
13.174120
 20
23.798526
 30
0.0
 10
13.015785
 20
23.891413
 30
0.0
 10
12.874196
 20
23.997150
 30
0.0
 10
12.749208
 20
24.109876
 30
0.0
 10
12.640677
 20
24.223732
 30
0.0
 10
12.548459
 20
24.332860
 30
0.0
 10
12.472406
 20
24.431400
 30
0.0
 10
12.402241
 20
24.530587
 30
0.0
 10
12.337858
 20
24.630604
 30
0.0
 10
12.279675
 20
24.728625
 30
0.0
 10
12.228104
 20
24.821826
 30
0.0
 10
12.183562
 20
24.907380
 30
0.0
 10
12.146462
 20
24.982463
 30
0.0
 10
12.117219
 20
25.044247
 30
0.0
 10
12.096250
 20
25.089908
 30
0.0
 10
12.065350
 20
25.163350
 30
0.0
 10
12.032102
 20
25.251012
 30
0.0
 10
11.998500
 20
25.345493
 30
0.0
 10
11.966537
 20
25.439390
 30
0.0
 10
11.938207
 20
25.525306
 30
0.0
 10
11.915503
 20
25.595837
 30
0.0
 10
11.900419
 20
25.643583
 30
0.0
 10
11.894952
 20
25.661143
 30
0.0
  0
LWPOLYLINE
  5
104
100
AcDbEntity
  8
borda
 62
7
100
AcDbPolyline
 90
129
 70
1
 10
3.285973
 20
31.455256
 30
0.0
 10
3.067084
 20
31.444165
 30
0.0
 10
2.854477
 20
31.411647
 30
0.0
 10
2.649234
 20
31.358776
 30
0.0
 10
2.452438
 20
31.286634
 30
0.0
 10
2.265169
 20
31.196303
 30
0.0
 10
2.088509
 20
31.088870
 30
0.0
 10
1.923542
 20
30.965414
 30
0.0
 10
1.771345
 20
30.827024
 30
0.0
 10
1.633003
 20
30.674776
 30
0.0
 10
1.509598
 20
30.509758
 30
0.0
 10
1.402210
 20
30.333050
 30
0.0
 10
1.311921
 20
30.145740
 30
0.0
 10
1.239816
 20
29.948909
 30
0.0
 10
1.186970
 20
29.743641
 30
0.0
 10
1.154472
 20
29.531014
 30
0.0
 10
1.143409
 20
29.312120
 30
0.0
 10
1.143409
 20
29.025179
 30
0.0
 10
1.143409
 20
28.738235
 30
0.0
 10
1.143409
 20
28.451294
 30
0.0
 10
1.143409
 20
28.164353
 30
0.0
 10
1.143409
 20
27.877409
 30
0.0
 10
1.143409
 20
27.590468
 30
0.0
 10
1.143409
 20
27.303525
 30
0.0
 10
1.143409
 20
27.016584
 30
0.0
 10
1.143409
 20
26.729643
 30
0.0
 10
1.143409
 20
26.442699
 30
0.0
 10
1.143409
 20
26.155758
 30
0.0
 10
1.143409
 20
25.868817
 30
0.0
 10
1.143409
 20
25.581873
 30
0.0
 10
1.143409
 20
25.294932
 30
0.0
 10
1.143409
 20
25.007988
 30
0.0
 10
1.143409
 20
24.721047
 30
0.0
 10
1.154472
 20
24.502153
 30
0.0
 10
1.186970
 20
24.289530
 30
0.0
 10
1.239816
 20
24.084258
 30
0.0
 10
1.311921
 20
23.887428
 30
0.0
 10
1.402210
 20
23.700117
 30
0.0
 10
1.509598
 20
23.523412
 30
0.0
 10
1.633003
 20
23.358394
 30
0.0
 10
1.771345
 20
23.206146
 30
0.0
 10
1.923542
 20
23.067756
 30
0.0
 10
2.088509
 20
22.944300
 30
0.0
 10
2.265169
 20
22.836867
 30
0.0
 10
2.452438
 20
22.746536
 30
0.0
 10
2.649234
 20
22.674394
 30
0.0
 10
2.854477
 20
22.621523
 30
0.0
 10
3.067084
 20
22.589005
 30
0.0
 10
3.285973
 20
22.577914
 30
0.0
 10
4.000624
 20
22.577914
 30
0.0
 10
4.715273
 20
22.577914
 30
0.0
 10
5.429925
 20
22.577914
 30
0.0
 10
6.144576
 20
22.577914
 30
0.0
 10
6.859225
 20
22.577914
 30
0.0
 10
7.573876
 20
22.577914
 30
0.0
 10
8.288528
 20
22.577914
 30
0.0
 10
9.003177
 20
22.577914
 30
0.0
 10
9.717828
 20
22.577914
 30
0.0
 10
10.432480
 20
22.577914
 30
0.0
 10
11.147131
 20
22.577914
 30
0.0
 10
11.861780
 20
22.577914
 30
0.0
 10
12.576432
 20
22.577914
 30
0.0
 10
13.291083
 20
22.577914
 30
0.0
 10
14.005732
 20
22.577914
 30
0.0
 10
14.720384
 20
22.577914
 30
0.0
 10
14.939272
 20
22.589005
 30
0.0
 10
15.151879
 20
22.621523
 30
0.0
 10
15.357122
 20
22.674394
 30
0.0
 10
15.553919
 20
22.746536
 30
0.0
 10
15.741187
 20
22.836867
 30
0.0
 10
15.917847
 20
22.944300
 30
0.0
 10
16.082814
 20
23.067756
 30
0.0
 10
16.235008
 20
23.206146
 30
0.0
 10
16.373351
 20
23.358394
 30
0.0
 10
16.496755
 20
23.523412
 30
0.0
 10
16.604144
 20
23.700117
 30
0.0
 10
16.694432
 20
23.887428
 30
0.0
 10
16.766537
 20
24.084258
 30
0.0
 10
16.819383
 20
24.289530
 30
0.0
 10
16.851881
 20
24.502153
 30
0.0
 10
16.862944
 20
24.721047
 30
0.0
 10
16.862944
 20
25.007988
 30
0.0
 10
16.862944
 20
25.294932
 30
0.0
 10
16.862944
 20
25.581873
 30
0.0
 10
16.862944
 20
25.868817
 30
0.0
 10
16.862944
 20
26.155758
 30
0.0
 10
16.862944
 20
26.442699
 30
0.0
 10
16.862944
 20
26.729643
 30
0.0
 10
16.862944
 20
27.016584
 30
0.0
 10
16.862944
 20
27.303525
 30
0.0
 10
16.862944
 20
27.590468
 30
0.0
 10
16.862944
 20
27.877409
 30
0.0
 10
16.862944
 20
28.164353
 30
0.0
 10
16.862944
 20
28.451294
 30
0.0
 10
16.862944
 20
28.738235
 30
0.0
 10
16.862944
 20
29.025179
 30
0.0
 10
16.862944
 20
29.312120
 30
0.0
 10
16.851881
 20
29.531014
 30
0.0
 10
16.819383
 20
29.743641
 30
0.0
 10
16.766537
 20
29.948909
 30
0.0
 10
16.694432
 20
30.145740
 30
0.0
 10
16.604144
 20
30.333050
 30
0.0
 10
16.496755
 20
30.509758
 30
0.0
 10
16.373351
 20
30.674776
 30
0.0
 10
16.235008
 20
30.827024
 30
0.0
 10
16.082814
 20
30.965414
 30
0.0
 10
15.917847
 20
31.088870
 30
0.0
 10
15.741187
 20
31.196303
 30
0.0
 10
15.553919
 20
31.286634
 30
0.0
 10
15.357122
 20
31.358776
 30
0.0
 10
15.151879
 20
31.411647
 30
0.0
 10
14.939272
 20
31.444165
 30
0.0
 10
14.720384
 20
31.455256
 30
0.0
 10
14.005732
 20
31.455256
 30
0.0
 10
13.291083
 20
31.455256
 30
0.0
 10
12.576432
 20
31.455256
 30
0.0
 10
11.861780
 20
31.455256
 30
0.0
 10
11.147131
 20
31.455256
 30
0.0
 10
10.432480
 20
31.455256
 30
0.0
 10
9.717828
 20
31.455256
 30
0.0
 10
9.003177
 20
31.455256
 30
0.0
 10
8.288528
 20
31.455256
 30
0.0
 10
7.573876
 20
31.455256
 30
0.0
 10
6.859225
 20
31.455256
 30
0.0
 10
6.144576
 20
31.455256
 30
0.0
 10
5.429925
 20
31.455256
 30
0.0
 10
4.715273
 20
31.455256
 30
0.0
 10
4.000624
 20
31.455256
 30
0.0
 10
3.285973
 20
31.455256
 30
0.0
  0
LWPOLYLINE
  5
105
100
AcDbEntity
  8
borda
 62
7
100
AcDbPolyline
 90
129
 70
1
 10
3.285973
 20
30.890812
 30
0.0
 10
4.000624
 20
30.890812
 30
0.0
 10
4.715273
 20
30.890812
 30
0.0
 10
5.429925
 20
30.890812
 30
0.0
 10
6.144576
 20
30.890812
 30
0.0
 10
6.859225
 20
30.890812
 30
0.0
 10
7.573876
 20
30.890812
 30
0.0
 10
8.288528
 20
30.890812
 30
0.0
 10
9.003177
 20
30.890812
 30
0.0
 10
9.717828
 20
30.890812
 30
0.0
 10
10.432480
 20
30.890812
 30
0.0
 10
11.147131
 20
30.890812
 30
0.0
 10
11.861780
 20
30.890812
 30
0.0
 10
12.576432
 20
30.890812
 30
0.0
 10
13.291083
 20
30.890812
 30
0.0
 10
14.005732
 20
30.890812
 30
0.0
 10
14.720384
 20
30.890812
 30
0.0
 10
14.883011
 20
30.882740
 30
0.0
 10
15.040650
 20
30.859034
 30
0.0
 10
15.192539
 20
30.820465
 30
0.0
 10
15.337920
 20
30.767786
 30
0.0
 10
15.476037
 20
30.701760
 30
0.0
 10
15.606124
 20
30.623147
 30
0.0
 10
15.727426
 20
30.532706
 30
0.0
 10
15.839186
 20
30.431202
 30
0.0
 10
15.940639
 20
30.319394
 30
0.0
 10
16.031029
 20
30.198041
 30
0.0
 10
16.109594
 20
30.067905
 30
0.0
 10
16.175581
 20
29.929746
 30
0.0
 10
16.228224
 20
29.784331
 30
0.0
 10
16.266767
 20
29.632414
 30
0.0
 10
16.290445
 20
29.474756
 30
0.0
 10
16.298517
 20
29.312123
 30
0.0
 10
16.298517
 20
29.025182
 30
0.0
 10
16.298517
 20
28.738238
 30
0.0
 10
16.298517
 20
28.451297
 30
0.0
 10
16.298517
 20
28.164356
 30
0.0
 10
16.298517
 20
27.877412
 30
0.0
 10
16.298517
 20
27.590471
 30
0.0
 10
16.298517
 20
27.303527
 30
0.0
 10
16.298517
 20
27.016587
 30
0.0
 10
16.298517
 20
26.729646
 30
0.0
 10
16.298517
 20
26.442702
 30
0.0
 10
16.298517
 20
26.155761
 30
0.0
 10
16.298517
 20
25.868820
 30
0.0
 10
16.298517
 20
25.581876
 30
0.0
 10
16.298517
 20
25.294935
 30
0.0
 10
16.298517
 20
25.007991
 30
0.0
 10
16.298517
 20
24.721050
 30
0.0
 10
16.290445
 20
24.558417
 30
0.0
 10
16.266767
 20
24.400762
 30
0.0
 10
16.228224
 20
24.248844
 30
0.0
 10
16.175581
 20
24.103427
 30
0.0
 10
16.109594
 20
23.965270
 30
0.0
 10
16.031029
 20
23.835135
 30
0.0
 10
15.940639
 20
23.713782
 30
0.0
 10
15.839186
 20
23.601974
 30
0.0
 10
15.727426
 20
23.500467
 30
0.0
 10
15.606124
 20
23.410029
 30
0.0
 10
15.476037
 20
23.331416
 30
0.0
 10
15.337920
 20
23.265388
 30
0.0
 10
15.192539
 20
23.212711
 30
0.0
 10
15.040650
 20
23.174142
 30
0.0
 10
14.883011
 20
23.150436
 30
0.0
 10
14.720384
 20
23.142364
 30
0.0
 10
14.005732
 20
23.142364
 30
0.0
 10
13.291083
 20
23.142364
 30
0.0
 10
12.576432
 20
23.142364
 30
0.0
 10
11.861780
 20
23.142364
 30
0.0
 10
11.147131
 20
23.142364
 30
0.0
 10
10.432480
 20
23.142364
 30
0.0
 10
9.717828
 20
23.142364
 30
0.0
 10
9.003177
 20
23.142364
 30
0.0
 10
8.288528
 20
23.142364
 30
0.0
 10
7.573876
 20
23.142364
 30
0.0
 10
6.859225
 20
23.142364
 30
0.0
 10
6.144576
 20
23.142364
 30
0.0
 10
5.429925
 20
23.142364
 30
0.0
 10
4.715273
 20
23.142364
 30
0.0
 10
4.000624
 20
23.142364
 30
0.0
 10
3.285973
 20
23.142364
 30
0.0
 10
3.123345
 20
23.150436
 30
0.0
 10
2.965707
 20
23.174142
 30
0.0
 10
2.813818
 20
23.212711
 30
0.0
 10
2.668434
 20
23.265390
 30
0.0
 10
2.530320
 20
23.331416
 30
0.0
 10
2.400232
 20
23.410029
 30
0.0
 10
2.278928
 20
23.500470
 30
0.0
 10
2.167170
 20
23.601974
 30
0.0
 10
2.065717
 20
23.713782
 30
0.0
 10
1.975327
 20
23.835135
 30
0.0
 10
1.896759
 20
23.965270
 30
0.0
 10
1.830773
 20
24.103427
 30
0.0
 10
1.778130
 20
24.248844
 30
0.0
 10
1.739587
 20
24.400762
 30
0.0
 10
1.715908
 20
24.558417
 30
0.0
 10
1.707837
 20
24.721050
 30
0.0
 10
1.707837
 20
25.007991
 30
0.0
 10
1.707837
 20
25.294935
 30
0.0
 10
1.707837
 20
25.581876
 30
0.0
 10
1.707837
 20
25.868820
 30
0.0
 10
1.707837
 20
26.155761
 30
0.0
 10
1.707837
 20
26.442702
 30
0.0
 10
1.707837
 20
26.729646
 30
0.0
 10
1.707837
 20
27.016587
 30
0.0
 10
1.707837
 20
27.303527
 30
0.0
 10
1.707837
 20
27.590471
 30
0.0
 10
1.707837
 20
27.877412
 30
0.0
 10
1.707837
 20
28.164356
 30
0.0
 10
1.707837
 20
28.451297
 30
0.0
 10
1.707837
 20
28.738238
 30
0.0
 10
1.707837
 20
29.025182
 30
0.0
 10
1.707837
 20
29.312123
 30
0.0
 10
1.715908
 20
29.474756
 30
0.0
 10
1.739587
 20
29.632414
 30
0.0
 10
1.778130
 20
29.784331
 30
0.0
 10
1.830773
 20
29.929746
 30
0.0
 10
1.896759
 20
30.067905
 30
0.0
 10
1.975327
 20
30.198041
 30
0.0
 10
2.065717
 20
30.319394
 30
0.0
 10
2.167170
 20
30.431202
 30
0.0
 10
2.278928
 20
30.532706
 30
0.0
 10
2.400232
 20
30.623147
 30
0.0
 10
2.530320
 20
30.701760
 30
0.0
 10
2.668434
 20
30.767786
 30
0.0
 10
2.813818
 20
30.820465
 30
0.0
 10
2.965707
 20
30.859034
 30
0.0
 10
3.123345
 20
30.882740
 30
0.0
 10
3.285973
 20
30.890812
 30
0.0
  0
LWPOLYLINE
  5
106
100
AcDbEntity
  8
argola
 62
7
100
AcDbPolyline
 90
33
 70
1
 10
0.846737
 20
27.863236
 30
0.0
 10
0.683077
 20
27.845061
 30
0.0
 10
0.527420
 20
27.793321
 30
0.0
 10
0.384020
 20
27.712287
 30
0.0
 10
0.257141
 20
27.606208
 30
0.0
 10
0.151043
 20
27.479349
 30
0.0
 10
0.069977
 20
27.335966
 30
0.0
 10
0.018209
 20
27.180318
 30
0.0
 10
0.000006
 20
27.016660
 30
0.0
 10
0.018181
 20
26.852982
 30
0.0
 10
0.069932
 20
26.697306
 30
0.0
 10
0.150986
 20
26.553897
 30
0.0
 10
0.257088
 20
26.427013
 30
0.0
 10
0.383972
 20
26.320912
 30
0.0
 10
0.527380
 20
26.239857
 30
0.0
 10
0.683057
 20
26.188103
 30
0.0
 10
0.846734
 20
26.169928
 30
0.0
 10
1.010392
 20
26.188132
 30
0.0
 10
1.166041
 20
26.239900
 30
0.0
 10
1.309426
 20
26.320962
 30
0.0
 10
1.436285
 20
26.427064
 30
0.0
 10
1.542364
 20
26.553942
 30
0.0
 10
1.623401
 20
26.697342
 30
0.0
 10
1.675138
 20
26.853002
 30
0.0
 10
1.693314
 20
27.016663
 30
0.0
 10
1.675110
 20
27.180301
 30
0.0
 10
1.623356
 20
27.335938
 30
0.0
 10
1.542311
 20
27.479310
 30
0.0
 10
1.436232
 20
27.606163
 30
0.0
 10
1.309378
 20
27.712242
 30
0.0
 10
1.166007
 20
27.793285
 30
0.0
 10
1.010370
 20
27.845041
 30
0.0
 10
0.846737
 20
27.863236
 30
0.0
  0
LWPOLYLINE
  5
107
100
AcDbEntity
  8
argola
 62
7
100
AcDbPolyline
 90
33
 70
1
 10
0.846737
 20
27.298845
 30
0.0
 10
0.901282
 20
27.292778
 30
0.0
 10
0.953163
 20
27.275534
 30
0.0
 10
1.000952
 20
27.248525
 30
0.0
 10
1.043237
 20
27.213166
 30
0.0
 10
1.078597
 20
27.170880
 30
0.0
 10
1.105606
 20
27.123089
 30
0.0
 10
1.122849
 20
27.071211
 30
0.0
 10
1.128917
 20
27.016666
 30
0.0
 10
1.122849
 20
26.962118
 30
0.0
 10
1.105606
 20
26.910240
 30
0.0
 10
1.078597
 20
26.862448
 30
0.0
 10
1.043237
 20
26.820165
 30
0.0
 10
1.000955
 20
26.784806
 30
0.0
 10
0.953163
 20
26.757797
 30
0.0
 10
0.901285
 20
26.740553
 30
0.0
 10
0.846737
 20
26.734486
 30
0.0
 10
0.792170
 20
26.740525
 30
0.0
 10
0.740266
 20
26.757769
 30
0.0
 10
0.692449
 20
26.784778
 30
0.0
 10
0.650141
 20
26.820137
 30
0.0
 10
0.614759
 20
26.862428
 30
0.0
 10
0.587722
 20
26.910231
 30
0.0
 10
0.570450
 20
26.962123
 30
0.0
 10
0.564382
 20
27.016688
 30
0.0
 10
0.570450
 20
27.071253
 30
0.0
 10
0.587722
 20
27.123145
 30
0.0
 10
0.614759
 20
27.170948
 30
0.0
 10
0.650141
 20
27.213236
 30
0.0
 10
0.692452
 20
27.248596
 30
0.0
 10
0.740266
 20
27.275604
 30
0.0
 10
0.792170
 20
27.292848
 30
0.0
 10
0.846737
 20
27.298845
 30
0.0
  0
ENDSEC
  0
SECTION
  2
OBJECTS
  0
DICTIONARY
  5
C
330
0
100
AcDbDictionary
  3
ACAD_GROUP
350
D
  3
ACAD_MLINESTYLE
350
17
  0
DICTIONARY
  5
D
330
C
100
AcDbDictionary
  0
DICTIONARY
  5
1A
330
C
100
AcDbDictionary
  0
DICTIONARY
  5
17
330
C
100
AcDbDictionary
  3
STANDARD
350
18
  0
DICTIONARY
  5
19
330
C
100
AcDbDictionary
  0
ENDSEC
  0
EOF
