<?xml version="1.0" encoding="UTF-8" standalone="no"?>
<!-- Created with Inkscape (http://www.inkscape.org/) -->

<svg
   xmlns:dc="http://purl.org/dc/elements/1.1/"
   xmlns:cc="http://creativecommons.org/ns#"
   xmlns:rdf="http://www.w3.org/1999/02/22-rdf-syntax-ns#"
   xmlns:svg="http://www.w3.org/2000/svg"
   xmlns="http://www.w3.org/2000/svg"
   xmlns:sodipodi="http://sodipodi.sourceforge.net/DTD/sodipodi-0.dtd"
   xmlns:inkscape="http://www.inkscape.org/namespaces/inkscape"
   width="211.71486"
   height="111.45587"
   id="svg2"
   version="1.1"
   inkscape:version="0.48+devel r12693"
   viewBox="0 0 59.75064 31.455324"
   sodipodi:docname="chaveiro-w3c-linhas.svg">
  <defs
     id="defs4">
	
	
	
	
	
</defs>
  <sodipodi:namedview
     id="base"
     pagecolor="#ffffff"
     bordercolor="#666666"
     borderopacity="1.0"
     inkscape:pageopacity="0.0"
     inkscape:pageshadow="2"
     inkscape:zoom="7.0235977"
     inkscape:cx="110.69825"
     inkscape:cy="55.727935"
     inkscape:document-units="px"
     inkscape:current-layer="layer4"
     showgrid="false"
     fit-margin-top="0"
     fit-margin-left="0"
     fit-margin-right="0"
     fit-margin-bottom="0"
     inkscape:window-width="1918"
     inkscape:window-height="1010"
     inkscape:window-x="0"
     inkscape:window-y="0"
     inkscape:window-maximized="1" />
  <metadata
     id="metadata7">
    <rdf:RDF>
      <cc:Work
         rdf:about="">
        <dc:format>image/svg+xml</dc:format>
        <dc:type
           rdf:resource="http://purl.org/dc/dcmitype/StillImage" />
        <dc:title></dc:title>
      </cc:Work>
    </rdf:RDF>
  </metadata>
  <g
     inkscape:groupmode="layer"
     id="layer2"
     inkscape:label="w3c">
    <path
       style="font-style:normal;font-variant:normal;font-weight:normal;font-stretch:normal;text-indent:0;text-align:start;text-decoration:none;line-height:normal;letter-spacing:normal;word-spacing:normal;text-transform:none;direction:ltr;block-progression:tb;writing-mode:lr-tb;text-anchor:start;baseline-shift:baseline;color:#000000;color-interpolation:sRGB;color-interpolation-filters:linearRGB;fill:#800000;fill-opacity:1;stroke:none;stroke-width:2;marker:none;visibility:visible;display:inline;overflow:visible;enable-background:accumulate;clip-rule:nonzero;color-rendering:auto;image-rendering:auto;shape-rendering:auto;text-rendering:auto;font-family:sans-serif;-inkscape-font-specification:sans-serif"
       d="m 17.878906,43.482422 -5.417456,0.547415 -5.0476436,1.569687 -4.5691787,2.483125 -3.9820623,3.287729 -3.2862942,3.983496 -2.4818741,4.57043 -1.5688025,5.048529 -0.547079,5.417792 0,7.205078 0,7.205078 0,7.205078 0,7.205079 0,7.205082 0,7.20507 0,7.20508 0,7.20508 0.547079,5.4177 1.5688025,5.0483 2.4818741,4.57012 3.2862942,3.98314 3.9820623,3.28737 4.5691787,2.48282 5.0476436,1.56947 5.417456,0.54733 17.944824,0 17.944825,0 17.944824,0 17.944824,0 17.944827,0 17.94482,0 17.94483,0 17.94482,0 5.41745,-0.54733 5.04765,-1.56947 4.56918,-2.48282 3.98206,-3.28737 3.28629,-3.98314 2.48188,-4.57012 1.5688,-5.0483 0.54708,-5.4177 0,-7.20508 0,-7.20508 0,-7.20507 0,-7.205082 0,-7.205079 0,-7.205078 0,-7.205078 0,-7.205078 -0.54708,-5.417792 -1.5688,-5.048529 -2.48188,-4.57043 -3.28629,-3.983496 -3.98206,-3.287729 -4.56918,-2.483125 -5.04765,-1.569687 -5.41745,-0.547415 -17.94482,0 -17.94483,0 -17.94482,0 -17.944827,0 -17.944824,0 -17.944824,0 -17.944825,0 z m 149.482424,13.08789 0.2229,1.353027 0.2229,1.353028 0.2229,1.353027 0.2229,1.353028 0.2229,1.353027 0.2229,1.353027 0.2229,1.353028 0.2229,1.353027 -0.78906,1.507568 -0.78906,1.507569 -0.78907,1.507568 -0.78906,1.507569 -0.78906,1.507568 -0.78906,1.507568 -0.78907,1.507569 -0.78906,1.507568 -0.11208,-0.225422 -0.32979,-0.61843 -0.53779,-0.92468 -0.7361,-1.144175 -0.9247,-1.276912 -1.10361,-1.322894 -1.27282,-1.282119 -1.43233,-1.154587 -1.22089,-0.808592 -1.13866,-0.64081 -1.08485,-0.480571 -1.05948,-0.327879 -1.06254,-0.182733 -1.09401,-0.04513 -1.15394,0.08492 -1.24227,0.207433 -1.6847,0.54218 -1.70027,0.916521 -1.67567,1.25388 -1.6109,1.55426 -1.50596,1.817658 -1.36085,2.044074 -1.17558,2.23351 -0.95013,2.385964 -0.86821,2.74931 -0.65579,2.414727 -0.47455,2.123859 -0.3245,1.876707 -0.20563,1.67327 -0.11793,1.513549 -0.0614,1.397544 -0.0361,1.325253 -0.011,1.980044 0.0631,1.75451 0.11471,1.51711 0.14399,1.26786 0.15092,1.00675 0.13548,0.73379 0.0977,0.44897 0.0375,0.15229 -0.16458,-0.32443 -0.43358,-0.94371 -0.61233,-1.51858 -0.70084,-2.04908 -0.69911,-2.535175 -0.60713,-2.976888 -0.42491,-3.374211 -0.15244,-3.727141 0.0649,-2.744264 0.1848,-2.686775 0.31796,-2.636319 0.46432,-2.592896 0.62391,-2.556508 0.7967,-2.527151 0.9827,-2.504829 1.18193,-2.489539 1.19661,-2.073574 1.31096,-1.846363 1.40223,-1.610327 1.47042,-1.365465 1.51554,-1.111774 1.5376,-0.849258 1.53658,-0.577915 1.51248,-0.297746 1.50257,-0.05078 1.42331,0.148433 1.34547,0.321349 1.26906,0.46797 1.19406,0.588299 1.12048,0.682336 1.04832,0.750078 0.97759,0.791529 0.9849,0.953908 0.95623,1.115542 0.89592,1.188156 0.80398,1.171749 0.68039,1.066322 0.52516,0.871874 0.3383,0.588406 0.1198,0.215918 0.77759,-1.547119 0.77759,-1.547119 0.77759,-1.54712 0.77759,-1.547119 0.77758,-1.547119 0.77759,-1.547119 0.77759,-1.54712 z m -157.7792988,0.47461 1.3757328,0 1.375732,0 1.375733,0 1.375732,0 1.375733,0 1.375732,0 1.375733,0 1.375732,0 1.900146,6.452392 1.900147,6.452393 1.900146,6.452392 1.900147,6.452392 1.900146,6.452392 1.900146,6.452393 1.900147,6.452394 1.900146,6.45239 1.28418,-4.34521 1.28418,-4.345219 1.284179,-4.345214 1.28418,-4.345215 1.28418,-4.345214 1.28418,-4.345215 1.284179,-4.345214 1.28418,-4.345215 -0.628906,-2.107178 -0.628906,-2.107177 -0.628907,-2.107178 -0.628906,-2.107178 -0.628906,-2.107178 -0.628906,-2.107177 -0.628907,-2.107178 -0.628906,-2.107178 1.375977,0 1.375976,0 1.375977,0 1.375976,0 1.375977,0 1.375976,0 1.375977,0 1.375976,0 1.899902,6.452392 1.899903,6.452393 1.899902,6.452392 1.899903,6.452392 1.899902,6.452392 1.899902,6.452393 1.899903,6.452394 1.899902,6.45239 1.900147,-6.45239 1.900146,-6.452394 1.900147,-6.452393 1.900146,-6.452392 1.900147,-6.452392 1.900146,-6.452392 1.900147,-6.452393 1.900146,-6.452392 1.375732,0 1.375733,0 1.375732,0 1.375733,0 1.375732,0 1.375732,0 1.375733,0 1.375732,0 3.775879,0 3.775879,0 3.77588,0 3.77588,0 3.77587,0 3.77588,0 3.77588,0 3.77588,0 0,0.641602 0,0.641601 0,0.641602 0,0.641601 0,0.641602 0,0.641601 0,0.641602 0,0.641601 -1.93945,3.337158 -1.93945,3.337159 -1.93946,3.337158 -1.93945,3.337158 -1.93945,3.337158 -1.93945,3.337159 -1.93946,3.337158 -1.93945,3.337158 1.98266,0.721464 1.85789,0.855684 1.73315,0.989892 1.60843,1.124093 1.48374,1.258281 1.35906,1.392461 1.23442,1.526631 1.10979,1.660791 0.98309,1.764873 0.85209,1.84 0.72106,1.91519 0.59001,1.99046 0.45893,2.06581 0.32783,2.14123 0.19672,2.21672 0.0656,2.29228 -0.0958,2.8223 -0.28746,2.70774 -0.47911,2.59323 -0.67077,2.47875 -0.86242,2.36432 -1.05407,2.24991 -1.24575,2.13556 -1.43741,2.02124 -1.5897,1.83893 -1.70265,1.59406 -1.81562,1.3491 -1.9286,1.10404 -2.04158,0.85887 -2.15456,0.61361 -2.26757,0.36823 -2.38058,0.12277 -1.80587,-0.0729 -1.746699,-0.21867 -1.687549,-0.36438 -1.628408,-0.51007 -1.569281,-0.65569 -1.510167,-0.80128 -1.451065,-0.94681 -1.391977,-1.09231 -1.318294,-1.21552 -1.229968,-1.31873 -1.141627,-1.42195 -1.053266,-1.52521 -0.964888,-1.62848 -0.876493,-1.73179 -0.78808,-1.83511 -0.699649,-1.93845 1.074463,-0.44458 1.074463,-0.44458 1.074463,-0.44458 1.074463,-0.44458 1.074462,-0.44458 1.074463,-0.44458 1.074463,-0.44458 1.074463,-0.44458 0.491209,1.17236 0.52873,1.10829 0.566291,1.04427 0.603889,0.98031 0.641525,0.9164 0.6792,0.85254 0.716914,0.78874 0.754664,0.72498 0.790169,0.65037 0.824535,0.56369 0.858929,0.47702 0.893351,0.39031 0.9278,0.30361 0.962282,0.21687 0.99678,0.13014 1.03131,0.0434 1.07899,-0.0769 1.03663,-0.23064 0.99422,-0.38439 0.95177,-0.53813 0.90928,-0.69187 0.86675,-0.84561 0.82417,-0.99934 0.78155,-1.15306 0.71265,-1.26152 0.61749,-1.32366 0.52236,-1.38583 0.42728,-1.44804 0.33225,-1.51028 0.23727,-1.57256 0.14233,-1.63487 0.0474,-1.69722 -0.0507,-1.85673 -0.15215,-1.74853 -0.25364,-1.6404 -0.35514,-1.53233 -0.45669,-1.42434 -0.55828,-1.31642 -0.65989,-1.20858 -0.76154,-1.1008 -1.01096,-1.15315 -1.14529,-0.99955 -1.2796,-0.845926 -1.41388,-0.692232 -1.54815,-0.538493 -1.68239,-0.384701 -1.8166,-0.230858 -1.950791,-0.07696 -0.523926,0 -0.523926,0 -0.523926,0 -0.523925,0 -0.523926,0 -0.523926,0 -0.523926,0 -0.523926,0 0,-0.628174 0,-0.628174 0,-0.628173 0,-0.628174 0,-0.628174 0,-0.628174 0,-0.628173 0,-0.628174 1.834472,-3.167236 1.834473,-3.167237 1.834472,-3.167236 1.834471,-3.167236 1.83447,-3.167237 1.83448,-3.167236 1.83447,-3.167237 1.83447,-3.167236 -2.21484,0 -2.21485,0 -2.21484,0 -2.214843,0 -2.214843,0 -2.214843,0 -2.214844,0 -2.214843,0 -0.126221,0.2146 -0.12622,0.214599 -0.126221,0.2146 -0.126221,0.214599 -0.126221,0.2146 -0.12622,0.2146 -0.126221,0.214599 -0.126221,0.2146 -2.692871,9.077637 -2.692871,9.077637 -2.692871,9.077638 -2.692871,9.077636 -2.692872,9.07764 -2.692871,9.07764 -2.692871,9.07763 -2.692871,9.07764 -0.131103,0 -0.131104,0 -0.131103,0 -0.131104,0 -0.131103,0 -0.131104,0 -0.131103,0 -0.131104,0 -1.965576,-6.56982 -1.965576,-6.56983 -1.965576,-6.56982 -1.965576,-6.56983 -1.965577,-6.56982 -1.965576,-6.56983 -1.965576,-6.569823 -1.965576,-6.569825 -1.965576,6.569825 -1.965576,6.569823 -1.965577,6.56983 -1.965576,6.56982 -1.965576,6.56983 -1.965576,6.56982 -1.965577,6.56983 -1.965576,6.56982 -0.130859,0 -0.130859,0 -0.13086,0 -0.130859,0 -0.130859,0 -0.13086,0 -0.130859,0 -0.130859,0 -3.14502,-10.60107 L 28.452149,120.65137 25.307129,110.0503 22.16211,99.449221 19.01709,88.848146 15.87207,78.247072 12.727051,67.645997 Z m 116.3828088,59.183598 0.12334,0.22075 0.34039,0.60341 0.51297,0.8978 0.6411,1.1039 0.72476,1.22174 0.76396,1.25131 0.75871,1.19259 0.70899,1.0456 0.72716,0.94639 0.81713,0.94068 0.86854,0.91189 0.88134,0.86004 0.85555,0.7851 0.79118,0.68711 0.68822,0.56604 0.54666,0.4219 0.56649,0.39754 0.7576,0.48079 0.92495,0.52766 1.06856,0.53817 1.18841,0.51231 1.28449,0.4501 1.35683,0.3515 1.40541,0.21654 1.34692,0.10398 1.22209,0.0316 1.13958,-0.0488 1.09941,-0.13721 1.10156,-0.23356 1.14603,-0.33788 1.23284,-0.45018 1.36196,-0.57046 1.40555,-0.70742 1.32928,-0.82888 1.24557,-0.9134 1.15439,-0.96101 1.05576,-0.97168 0.94965,-0.94543 0.83611,-0.88224 0.7151,-0.78213 0.69346,-0.84697 0.74723,-1.0397 0.75594,-1.13823 0.71956,-1.14254 0.63812,-1.05264 0.51161,-0.86853 0.34002,-0.59021 0.12335,-0.21767 0.19971,1.04468 0.19971,1.04468 0.1997,1.04468 0.19971,1.04468 0.19971,1.04467 0.1997,1.04468 0.19971,1.04468 0.19971,1.04468 -0.0438,0.0846 -0.12053,0.23127 -0.18123,0.3439 -0.22586,0.42253 -0.25442,0.46717 -0.26689,0.47781 -0.2633,0.45446 -0.24363,0.39712 -0.34365,0.52609 -0.39971,0.59187 -0.4489,0.64194 -0.4912,0.67634 -0.52662,0.69506 -0.55515,0.69808 -0.5768,0.68542 -0.59157,0.65708 -0.60953,0.62589 -0.6672,0.64245 -0.69966,0.63945 -0.70686,0.61686 -0.68884,0.57473 -0.64558,0.51301 -0.57709,0.43173 -0.48336,0.33088 -0.58892,0.36835 -0.89877,0.50649 -1.19253,0.5686 -1.47021,0.55466 -1.7318,0.46469 -1.9773,0.29868 -2.20673,0.0566 -2.42007,-0.26146 -2.41384,-0.62291 -2.19996,-0.93133 -1.9879,-1.16621 -1.77765,-1.32752 -1.56922,-1.41528 -1.36261,-1.42947 -1.15781,-1.3701 -0.95484,-1.23718 -0.88093,-1.24529 -0.80832,-1.25571 -0.7305,-1.23066 -0.64747,-1.17014 -0.55923,-1.07414 -0.46579,-0.94266 -0.36714,-0.7757 -0.26327,-0.57328 -0.38795,-0.92207 -0.41743,-1.10059 -0.42187,-1.18621 -0.4013,-1.17889 -0.35568,-1.07867 -0.28505,-0.88552 -0.18938,-0.59945 z"
       transform="matrix(0.28222223,0,0,0.28222223,6.59739,-12.27171)"
       id="path4484"
       inkscape:connector-curvature="0"
       sodipodi:nodetypes="cccccccccccccccccccccccccccccccccccccccccccccccccccccccccccccccccccccccccccccccccccccccccccccccccccccccccccccccccccccccccccccccccccccccccccccccccccccccccccccccccccccccccccccccccccccccccccccccccccccccccccccccccccccccccccccccccccccccccccccccccccccccccccccccccccccccccccccccccccccccccccccccccccccccccccccccccccccccccccccccccccccccccccccccccccccccccccccccccccccccccccccccccccccccccccccccccccccccccccccccccccccccccccccccccccccccccccccccccccccccccccccccccccccccccccccccccccccccccccccccccccccccccccccccccccccccccccccccccccccccccccccccccccccccccccccccccccccccccccccccccccc" />
  </g>
  <g
     inkscape:groupmode="layer"
     id="layer3"
     inkscape:label="borda">
    <path
       transform="translate(-314.68882,-353.56031)"
       style="font-style:normal;font-variant:normal;font-weight:normal;font-stretch:normal;text-indent:0;text-align:start;text-decoration:none;line-height:normal;letter-spacing:normal;word-spacing:normal;text-transform:none;direction:ltr;block-progression:tb;writing-mode:lr-tb;text-anchor:start;baseline-shift:baseline;color:#000000;color-interpolation:sRGB;color-interpolation-filters:linearRGB;fill:#ff0000;fill-opacity:1;stroke:none;stroke-width:2;marker:none;visibility:visible;display:inline;overflow:visible;enable-background:accumulate;clip-rule:nonzero;color-rendering:auto;image-rendering:auto;shape-rendering:auto;text-rendering:auto;font-family:sans-serif;-inkscape-font-specification:sans-serif"
       d="m 326.33203,353.56055 -0.77559,0.0393 -0.75333,0.11522 -0.72724,0.18734 -0.69731,0.25562 -0.66355,0.32007 -0.62596,0.38067 -0.58453,0.43744 -0.53928,0.49036 -0.49019,0.53946 -0.43726,0.58471 -0.38051,0.62613 -0.31992,0.6637 -0.25549,0.69743 -0.18725,0.72733 -0.11515,0.7534 -0.0392,0.77561 0,1.01672 0,1.01673 0,1.01672 0,1.01672 0,1.01673 0,1.01672 0,1.01673 0,1.01672 0,1.01672 0,1.01673 0,1.01672 0,1.01672 0,1.01673 0,1.01672 0,1.01673 0,1.01672 0.0392,0.77561 0.11515,0.75339 0.18725,0.72734 0.25549,0.69743 0.31992,0.6637 0.38051,0.62612 0.43726,0.58471 0.49019,0.53946 0.53928,0.49036 0.58453,0.43744 0.62596,0.38067 0.66355,0.32007 0.69731,0.25562 0.72724,0.18734 0.75333,0.11522 0.77559,0.0393 2.53223,0 2.53222,0 2.53223,0 2.53223,0 2.53222,0 2.53223,0 2.53223,0 2.53222,0 2.53223,0 2.53223,0 2.53223,0 2.53222,0 2.53223,0 2.53223,0 2.53222,0 2.53223,0 0.77559,-0.0393 0.75333,-0.11522 0.72724,-0.18734 0.69731,-0.25562 0.66355,-0.32007 0.62596,-0.38067 0.58453,-0.43744 0.53927,-0.49036 0.49019,-0.53946 0.43726,-0.58471 0.38051,-0.62612 0.31992,-0.6637 0.25549,-0.69743 0.18725,-0.72734 0.11515,-0.75339 0.0392,-0.77561 0,-1.01672 0,-1.01673 0,-1.01672 0,-1.01673 0,-1.01672 0,-1.01672 0,-1.01673 0,-1.01672 0,-1.01672 0,-1.01673 0,-1.01672 0,-1.01673 0,-1.01672 0,-1.01672 0,-1.01673 0,-1.01672 -0.0392,-0.77561 -0.11515,-0.7534 -0.18725,-0.72733 -0.25549,-0.69743 -0.31992,-0.6637 -0.38051,-0.62613 -0.43726,-0.58471 -0.49019,-0.53946 -0.53927,-0.49036 -0.58453,-0.43744 -0.62596,-0.38067 -0.66355,-0.32007 -0.69731,-0.25562 -0.72724,-0.18734 -0.75333,-0.11522 -0.77559,-0.0393 -2.53223,0 -2.53222,0 -2.53223,0 -2.53223,0 -2.53222,0 -2.53223,0 -2.53223,0 -2.53223,0 -2.53222,0 -2.53223,0 -2.53223,0 -2.53222,0 -2.53223,0 -2.53223,0 -2.53222,0 z m 0,2 2.53223,0 2.53222,0 2.53223,0 2.53223,0 2.53222,0 2.53223,0 2.53223,0 2.53222,0 2.53223,0 2.53223,0 2.53223,0 2.53222,0 2.53223,0 2.53223,0 2.53222,0 2.53223,0 0.57624,0.0286 0.55856,0.084 0.53819,0.13666 0.51513,0.18666 0.48939,0.23395 0.46094,0.27855 0.42981,0.32046 0.396,0.35966 0.35948,0.39617 0.32028,0.42999 0.27838,0.46111 0.23381,0.48954 0.18653,0.51525 0.13657,0.53829 0.0839,0.55863 0.0286,0.57626 0,1.01672 0,1.01673 0,1.01672 0,1.01672 0,1.01673 0,1.01672 0,1.01673 0,1.01672 0,1.01672 0,1.01673 0,1.01672 0,1.01672 0,1.01673 0,1.01672 0,1.01673 0,1.01672 -0.0286,0.57626 -0.0839,0.55862 -0.13657,0.53829 -0.18653,0.51526 -0.23381,0.48953 -0.27838,0.46111 -0.32028,0.42999 -0.35948,0.39617 -0.396,0.35967 -0.42981,0.32045 -0.46094,0.27855 -0.48939,0.23396 -0.51513,0.18665 -0.53819,0.13666 -0.55856,0.084 -0.57624,0.0286 -2.53223,0 -2.53222,0 -2.53223,0 -2.53223,0 -2.53222,0 -2.53223,0 -2.53223,0 -2.53223,0 -2.53222,0 -2.53223,0 -2.53223,0 -2.53222,0 -2.53223,0 -2.53223,0 -2.53222,0 -2.53223,0 -0.57624,-0.0286 -0.55856,-0.084 -0.53819,-0.13666 -0.51514,-0.18666 -0.48938,-0.23395 -0.46094,-0.27855 -0.42982,-0.32046 -0.39599,-0.35966 -0.35948,-0.39617 -0.32028,-0.42999 -0.27839,-0.46111 -0.23381,-0.48953 -0.18653,-0.51526 -0.13657,-0.53829 -0.0839,-0.55862 -0.0286,-0.57626 0,-1.01672 0,-1.01673 0,-1.01672 0,-1.01673 0,-1.01672 0,-1.01672 0,-1.01673 0,-1.01672 0,-1.01672 0,-1.01673 0,-1.01672 0,-1.01673 0,-1.01672 0,-1.01672 0,-1.01673 0,-1.01672 0.0286,-0.57626 0.0839,-0.55863 0.13657,-0.53829 0.18653,-0.51525 0.23381,-0.48954 0.27839,-0.46111 0.32028,-0.42999 0.35948,-0.39617 0.39599,-0.35966 0.42982,-0.32046 0.46094,-0.27855 0.48938,-0.23395 0.51514,-0.18666 0.53819,-0.13666 0.55856,-0.084 z"
       id="rect3672"
       inkscape:connector-curvature="0"
       sodipodi:nodetypes="cccccccccccccccccccccccccccccccccccccccccccccccccccccccccccccccccccccccccccccccccccccccccccccccccccccccccccccccccccccccccccccccccccccccccccccccccccccccccccccccccccccccccccccccccccccccccccccccccccccccccccccccccccccccccccccccccccccccccccccccccccccccccccccccccc" />
  </g>
  <g
     inkscape:groupmode="layer"
     id="layer4"
     inkscape:label="argola">
    <path
       transform="translate(-314.68882,-353.56031)"
       style="fill:#000080;fill-opacity:1;stroke:none"
       d="m 317.68907,366.28818 -0.5799,0.0644 -0.55154,0.18333 -0.50811,0.28713 -0.44957,0.37587 -0.37594,0.4495 -0.28724,0.50805 -0.18343,0.55151 -0.0645,0.57989 0.0644,0.57996 0.18337,0.55161 0.2872,0.50814 0.37595,0.44959 0.44959,0.37595 0.50814,0.2872 0.55161,0.18338 0.57996,0.0644 0.57989,-0.0645 0.55151,-0.18343 0.50806,-0.28723 0.4495,-0.37595 0.37587,-0.44957 0.28714,-0.50811 0.18332,-0.55155 0.0644,-0.5799 -0.0645,-0.57982 -0.18338,-0.55147 -0.28717,-0.50801 -0.37587,-0.44948 -0.44948,-0.37587 -0.50801,-0.28716 -0.55147,-0.18339 z m 0,1.99981 0.19327,0.0215 0.18383,0.0611 0.16933,0.0957 0.14983,0.12529 0.12529,0.14983 0.0957,0.16934 0.0611,0.18382 0.0215,0.19327 -0.0215,0.19328 -0.0611,0.18382 -0.0957,0.16934 -0.12529,0.14982 -0.14982,0.12529 -0.16934,0.0957 -0.18382,0.0611 -0.19328,0.0215 -0.19335,-0.0214 -0.18391,-0.0611 -0.16943,-0.0957 -0.14991,-0.12529 -0.12537,-0.14985 -0.0958,-0.16938 -0.0612,-0.18387 -0.0215,-0.19334 0.0215,-0.19334 0.0612,-0.18387 0.0958,-0.16938 0.12537,-0.14984 0.14992,-0.12529 0.16942,-0.0957 0.18391,-0.0611 z"
       id="circle3669"
       inkscape:connector-curvature="0"
       sodipodi:nodetypes="cccccccccccccccccccccccccccccccccccccccccccccccccccccccccccccccccc" />
  </g>
</svg>
