<?xml version="1.0" encoding="UTF-8" standalone="no"?>
<!-- Created with Inkscape (http://www.inkscape.org/) -->

<svg
   xmlns:dc="http://purl.org/dc/elements/1.1/"
   xmlns:cc="http://creativecommons.org/ns#"
   xmlns:rdf="http://www.w3.org/1999/02/22-rdf-syntax-ns#"
   xmlns:svg="http://www.w3.org/2000/svg"
   xmlns="http://www.w3.org/2000/svg"
   xmlns:sodipodi="http://sodipodi.sourceforge.net/DTD/sodipodi-0.dtd"
   xmlns:inkscape="http://www.inkscape.org/namespaces/inkscape"
   width="211.71486"
   height="111.45587"
   id="svg2"
   version="1.1"
   inkscape:version="0.48+devel r12693"
   viewBox="0 0 59.75064 31.455324"
   sodipodi:docname="chaveiro-w3c.svg">
  <defs
     id="defs4">
	
	
	
	
	
</defs>
  <sodipodi:namedview
     id="base"
     pagecolor="#ffffff"
     bordercolor="#666666"
     borderopacity="1.0"
     inkscape:pageopacity="0.0"
     inkscape:pageshadow="2"
     inkscape:zoom="7.0235977"
     inkscape:cx="110.69825"
     inkscape:cy="55.727935"
     inkscape:document-units="px"
     inkscape:current-layer="layer2"
     showgrid="false"
     fit-margin-top="0"
     fit-margin-left="0"
     fit-margin-right="0"
     fit-margin-bottom="0"
     inkscape:window-width="1918"
     inkscape:window-height="1010"
     inkscape:window-x="0"
     inkscape:window-y="0"
     inkscape:window-maximized="1" />
  <metadata
     id="metadata7">
    <rdf:RDF>
      <cc:Work
         rdf:about="">
        <dc:format>image/svg+xml</dc:format>
        <dc:type
           rdf:resource="http://purl.org/dc/dcmitype/StillImage" />
        <dc:title></dc:title>
      </cc:Work>
    </rdf:RDF>
  </metadata>
  <g
     inkscape:groupmode="layer"
     id="layer2"
     inkscape:label="w3c">
    <path
       style="font-style:normal;font-variant:normal;font-weight:normal;font-stretch:normal;text-indent:0;text-align:start;text-decoration:none;line-height:normal;letter-spacing:normal;word-spacing:normal;text-transform:none;direction:ltr;block-progression:tb;writing-mode:lr-tb;text-anchor:start;baseline-shift:baseline;color:#000000;color-interpolation:sRGB;color-interpolation-filters:linearRGB;fill:#800000;fill-opacity:1;stroke:none;stroke-width:2;marker:none;visibility:visible;display:inline;overflow:visible;enable-background:accumulate;clip-rule:nonzero;color-rendering:auto;image-rendering:auto;shape-rendering:auto;text-rendering:auto;font-family:sans-serif;-inkscape-font-specification:sans-serif"
       d="m 17.878906,43.482422 c -14.8430545,0 -26.9003904,12.065148 -26.9003904,26.908203 l 0,57.640625 c 0,14.84302 12.0573359,26.90625 26.9003904,26.90625 l 143.558594,0 c 14.84305,0 26.90039,-12.06323 26.90039,-26.90625 l 0,-57.640625 c 0,-14.843055 -12.05734,-26.908203 -26.90039,-26.908203 l -143.558594,0 z m 149.482424,13.08789 1.7832,10.824219 -6.3125,12.060547 c 0,0 -2.42562,-5.117479 -6.44922,-7.949219 -3.39062,-2.386665 -5.60085,-2.903154 -9.05664,-2.193359 -4.43608,0.913819 -9.46668,6.215075 -11.66406,12.748047 -2.62616,7.816464 -2.65393,11.597738 -2.74414,15.074219 -0.14776,5.570294 0.73242,8.861324 0.73242,8.861324 0,0 -3.83191,-7.079054 -3.79492,-17.449215 0.0248,-7.400941 1.18801,-14.113644 4.61719,-20.738281 3.01801,-5.82463 7.50176,-9.319839 11.48242,-9.732422 4.11378,-0.424382 7.36702,1.556581 9.88086,3.699219 2.6365,2.249114 5.30468,7.171875 5.30468,7.171875 l 6.22071,-12.376954 z m -157.7792988,0.47461 11.0058598,0 15.201171,51.619138 10.273438,-34.761716 -5.03125,-16.857422 11.007812,0 15.199219,51.619138 15.201172,-51.619138 11.005859,0 30.207028,0 0,5.132812 L 108.13672,88.875 c 5.45347,1.744937 9.57584,4.921651 12.36914,9.529297 2.79624,4.606233 4.19531,10.012983 4.19531,16.226563 0,7.67891 -2.04415,14.13547 -6.13281,19.37305 -4.08859,5.2302 -9.38197,7.84961 -15.88086,7.84961 -4.894547,0 -9.15785,-1.55534 -12.791016,-4.66211 -3.6332,-3.1038 -6.324458,-7.30821 -8.072265,-12.61524 l 8.595703,-3.55664 c 1.259894,3.21176 2.919615,5.73956 4.982422,7.58789 2.061319,1.84986 4.48892,2.77539 7.285156,2.77539 2.93375,0 5.41609,-1.64013 7.44336,-4.91992 2.02734,-3.28124 3.03906,-7.22489 3.03906,-11.83398 0,-5.09563 -1.0817,-9.03629 -3.24804,-11.82813 -2.51675,-3.27979 -6.46665,-4.921874 -11.847661,-4.921874 l -4.191407,0 0,-5.02539 14.675778,-25.337891 -17.718746,0 -1.009766,1.716797 -21.542969,72.621098 -1.048828,0 -15.724609,-52.558598 -15.72461,52.558598 -1.046874,0 L 9.5820312,57.044922 Z M 125.96484,116.22852 c 0,0 2.78939,5.02327 4.57422,7.5371 1.7848,2.51083 4.94105,5.20678 6.17578,6.11915 1.2347,0.91679 4.76133,3.10943 8.55274,3.47461 3.79584,0.36676 5.8087,0.0461 9.65039,-1.64258 3.84318,-1.69168 6.95246,-5.07282 8.69141,-6.99219 1.73746,-1.91785 4.52929,-6.89649 4.52929,-6.89649 l 1.59766,8.35743 c 0,0 -0.99045,1.9266 -1.59961,2.8789 -0.83551,1.30128 -2.34251,3.47141 -3.9336,5.17188 -1.52606,1.62957 -3.93657,3.64451 -5.07812,4.375 -1.14304,0.73049 -5.76266,3.74556 -12.48633,2.55664 -6.72371,-1.18446 -11.14661,-6.44347 -13.42383,-9.5 -2.44133,-3.27533 -4.1637,-7.04028 -4.72265,-8.26758 -0.97299,-2.13821 -2.52735,-7.17187 -2.52735,-7.17187 z"
       transform="matrix(0.28222223,0,0,0.28222223,6.59739,-12.27171)"
       id="path4484"
       inkscape:connector-curvature="0" />
  </g>
  <g
     inkscape:groupmode="layer"
     id="layer3"
     inkscape:label="borda">
    <path
       transform="translate(-314.68882,-353.56031)"
       style="font-style:normal;font-variant:normal;font-weight:normal;font-stretch:normal;text-indent:0;text-align:start;text-decoration:none;line-height:normal;letter-spacing:normal;word-spacing:normal;text-transform:none;direction:ltr;block-progression:tb;writing-mode:lr-tb;text-anchor:start;baseline-shift:baseline;color:#000000;color-interpolation:sRGB;color-interpolation-filters:linearRGB;fill:#ff0000;fill-opacity:1;stroke:none;stroke-width:2;marker:none;visibility:visible;display:inline;overflow:visible;enable-background:accumulate;clip-rule:nonzero;color-rendering:auto;image-rendering:auto;shape-rendering:auto;text-rendering:auto;font-family:sans-serif;-inkscape-font-specification:sans-serif"
       d="m 326.33203,353.56055 c -4.18904,0 -7.5918,3.40471 -7.5918,7.59375 l 0,16.26758 c 0,4.18903 3.40276,7.59374 7.5918,7.59374 l 40.51563,0 c 4.18904,0 7.59179,-3.40471 7.59179,-7.59374 l 0,-16.26758 c 0,-4.18904 -3.40275,-7.59375 -7.59179,-7.59375 l -40.51563,0 z m 0,2 40.51563,0 c 3.11563,0 5.59179,2.47811 5.59179,5.59375 l 0,16.26758 c 0,3.11563 -2.47616,5.59375 -5.59179,5.59374 l -40.51563,0 c -3.11563,0 -5.5918,-2.47811 -5.5918,-5.59374 l 0,-16.26758 c 0,-3.11564 2.47617,-5.59375 5.5918,-5.59375 z"
       id="rect3672"
       inkscape:connector-curvature="0" />
  </g>
  <g
     inkscape:groupmode="layer"
     id="layer4"
     inkscape:label="argola">
    <path
       transform="translate(-314.68882,-353.56031)"
       style="fill:#000080;fill-opacity:1;stroke:none"
       d="m 317.68907,366.28818 a 3,3 0 0 0 -3.00026,2.99971 3,3 0 0 0 3.00026,3.00027 3,3 0 0 0 2.99972,-3.00027 3,3 0 0 0 -2.99972,-2.99971 z m 0,1.99981 a 1,1 0 0 1 0.99991,0.9999 1,1 0 0 1 -0.99991,0.99991 1,1 0 0 1 -1.00045,-0.99991 1,1 0 0 1 1.00045,-0.9999 z"
       id="circle3669"
       inkscape:connector-curvature="0" />
  </g>
</svg>
